<?xml version="1.0" encoding="UTF-8"?>
<svg width="512" height="512" version="1.1" viewBox="0 0 135.47 135.46" xml:space="preserve" xmlns="http://www.w3.org/2000/svg"><g transform="matrix(4.5803 0 0 4.5803 -.013741 49.028)" stroke-width=".843"><path transform="translate(-98.499,-13.663)" d="m101.88 13.698-3.378 8.097h4.366l3.38-8.097z" fill="#e40303" style="paint-order:stroke markers fill"/><path transform="translate(-98.499,-13.663)" d="m123.71 13.698-3.378 8.097h4.366l3.38-8.097z" fill="#b10acc" style="paint-order:stroke markers fill"/><path transform="translate(-98.499,-13.663)" d="m119.35 13.698-3.378 8.097h4.366l3.38-8.097z" fill="#0066ff" style="paint-order:stroke markers fill"/><path transform="translate(-98.499,-13.663)" d="m114.98 13.698-3.378 8.097h4.366l3.38-8.097z" fill="#00b335" style="paint-order:stroke markers fill"/><path transform="translate(-98.499,-13.663)" d="m110.61 13.698-3.378 8.097h4.367l3.378-8.097z" fill="#ffed00" style="paint-order:stroke markers fill"/><path transform="translate(-98.499,-13.663)" d="m106.24 13.698-3.378 8.097h4.366l3.38-8.097z" fill="#ff8c00" style="paint-order:stroke markers fill"/></g></svg>
