<?xml version="1.0" encoding="UTF-8"?>
<!-- Created with Inkscape (http://www.inkscape.org/) -->
<svg width="135.5mm" height="135.5mm" version="1.1" viewBox="0 0 135.5 135.5" xml:space="preserve" xmlns="http://www.w3.org/2000/svg"><g transform="translate(-37.27 -80.83)"><g transform="matrix(1 0 0 .25 0 60.62)" stroke-linejoin="bevel"><path d="m37.27 80.83h135.5v541.9h-135.5z" fill="#2d2d2b" stroke-width="2.93" style="paint-order:markers stroke fill"/><g><path d="m37.27 80.83h135.5v406.4h-135.5z" fill="#720092" stroke-width="2.537" style="paint-order:markers stroke fill"/><path d="m37.27 80.83h135.5v270.9h-135.5z" fill="#fff" stroke-width="2.072" style="paint-order:markers stroke fill"/><path d="m37.27 80.83h135.5v135.5h-135.5z" fill="#fddd45" stroke-width="1.465" style="paint-order:markers stroke fill"/></g></g><g transform="matrix(.2646 0 0 .2646 37.29 81.96)"><path d="m173.7 186.9v23.02c0 24.46 0 48.92 0.17 73.37 0.084 12.86 0.422 25.64 0.592 38.51 0 1.523 0.338 2.2 2.115 2.285 12.69 0.846 25.3 0.17 37.91-1.693 1.693-0.253 2.116-0.761 2.031-2.37-0.253-8.885-0.592-17.86-0.592-26.74-0.17-24.71-0.17-49.42-0.17-74.22 0-3.3 0.847-6.516 1.355-9.816 0.084-0.423 0.254-0.846 0.084-1.185-1.861-4.993-1.015-10.24-1.1-15.4-0.084-2.2 0-4.316 0-6.516-14.13-0.762-28.01-1.016-42.4 0.761m100.6 3.978c0.593 0.508 0.931 0.846 1.354 1.185 4.824 3.554 8.463 8.04 11.17 13.46 3.47 7.108 4.824 14.81 4.909 22.6 0.253 25.47 0.338 50.86 0.507 76.34v19.21c15.06 1.185 29.37 0.508 43.84-1.438 0-1.27 0.085-2.37 0-3.47-0.338-6.685-0.93-13.29-1.015-19.97-0.508-25.3-0.846-50.61-1.27-75.91-0.169-9.648-0.846-19.21-3.977-28.52-2.793-8.464-8.209-13.88-17.35-14.98-8.294-1.015-16.33 0.254-24.2 3.3-5.078 1.947-9.732 4.57-13.96 8.21m-21.07 168.4c-6.686 3.977-14.05 5.077-21.24 6.516-16.42 3.3-32.92 4.824-49.68 4.4-11.42-0.253-22.76-1.607-33.94-3.808-11-2.115-18.62-11.09-19.04-22.26-1.523-42.48-1.946-84.88-1.608-127.4 0.17-16.67 0.508-33.34 0.762-49.93 0.169-10.92 8.124-19.46 19.72-22 23.78-5.247 47.9-6.008 72.1-4.316 6.94 0.508 13.79 1.185 20.73 1.778 5.247 0.423 9.817 2.454 13.37 5.5 7.11-3.216 13.8-6.77 20.82-9.14 20.65-7.024 41.47-8.124 62.03 0.593 13.29 5.67 23.19 15.23 30.21 27.84 6.008 10.83 8.97 22.6 10.58 34.7 1.692 12.52 1.185 25.22 1.438 37.83 0.508 22.76 0.847 45.53 1.693 68.21 0.423 10.32 1.946 20.56 2.962 30.89 1.016 10.66-6.347 21.24-16.76 23.86-24.88 6.347-50.27 8.632-75.91 6.855-8.463-0.593-16.84-1.862-25.3-3.047-4.908-0.761-9.31-3.216-12.95-7.109" fill="#2d2d2b"/><path d="m343.8 174.7c-8.463-11-20.73-16.5-36.9-16.5-7.278 0-14.39 1.1-21.33 3.216-6.94 2.116-13.46 5.162-19.55 9.055-6.009 3.893-11.42 8.632-16 14.05-4.655 5.416-8.378 11.51-11.17 18.11 0-6.262 0.085-12.27 0.17-18.11 0.084-5.84 0.253-11.59 0.422-17.26-15.32-1.777-30.3-2.708-44.94-2.539a197.8 197.8 0 0 0-43.08 4.993 2516 2516 0 0 0-0.761 51.28 4943 4943 0 0 0 0 50.1c0.084 15.91 0.338 30.38 0.592 43.41 0.339 13.03 0.677 23.44 1.1 31.31 14.72 3.047 29.7 4.147 44.94 3.3s29.54-3.046 42.82-6.685c-0.169-5.416-0.423-12.61-0.761-21.5s-0.508-18.79-0.593-29.62c-0.084-10.92-0.169-22.51-0.169-34.78v-37.24a21.21 21.21 0 0 1 6.94-6.77c2.792-1.692 5.67-2.539 8.462-2.539 4.401 0 8.04 1.777 10.75 5.332s4.063 9.394 4.063 17.69v23.86c0 9.478 0.084 19.38 0.169 29.79 0.084 10.41 0.254 20.73 0.423 31.14 0.17 10.41 0.423 19.72 0.592 28.01 14.72 2.793 30.13 3.893 46.29 3.216s31.14-2.878 45.11-6.517c-1.184-6.431-2.115-14.72-2.708-24.8-0.592-10.07-1.1-20.65-1.354-31.65-0.338-11-0.508-21.75-0.592-32.24-0.085-10.49-0.17-19.46-0.17-26.91-0.084-23.78-4.315-41.21-12.78-52.22" fill="#fff"/></g></g></svg>
