<svg width="512" height="512" xml:space="preserve" xmlns="http://www.w3.org/2000/svg"><style>.st6{clip-path:url(#XMLID_86_);fill:#2d2d2b}</style><g stroke-width=".846"><path id="XMLID_20_" d="M256.76 502.18c136 0 246.18-110.19 246.18-246.18S392.75 9.82 256.76 9.82c-136 0-246.18 110.27-246.18 246.18 0 136 110.27 246.18 246.18 246.18" clip-path="url(#XMLID_85_)" fill="#fff"/><circle id="XMLID_19_" cx="256.76" cy="256" r="246.18" clip-path="url(#XMLID_85_)" fill="none" stroke="#fff"/><path id="XMLID_18_" d="M249.57 9.817c-91.144 0-170.61 49.507-213.18 123.13h426.36C420.182 59.405 340.72 9.817 249.57 9.817" clip-path="url(#XMLID_85_)" fill="#fddd45"/><path id="XMLID_17_" d="M466.22 379.13c20.988-36.221 33.005-78.196 33.005-123.13H6.945c0 44.853 12.017 86.913 33.005 123.13z" clip-path="url(#XMLID_85_)" fill="#720092"/><path id="XMLID_16_" d="M253.12 502.18c91.144 0 170.61-49.507 213.18-123.05H39.94c42.568 73.542 122.03 123.05 213.18 123.05" clip-path="url(#XMLID_85_)" fill="#2d2d2b"/></g><path id="XMLID_13_" d="M48.069 379.64h417.39" fill="none" stroke="#2d2d2b" stroke-linecap="round" stroke-linejoin="round" stroke-width=".571"/><g stroke-width=".846"><path id="XMLID_10_" class="st6" d="M492.54 256c0 130.58-105.87 236.54-236.54 236.54-130.58 0-236.54-105.87-236.54-236.54S125.41 19.55 256 19.55 492.54 125.42 492.54 256m19.464 0c0-141.33-114.59-256-256-256s-256 114.67-256 256 114.59 256 256 256 256-114.59 256-256" clip-path="url(#XMLID_86_)"/><path id="XMLID_6_" class="st6" d="M173.66 186.94v23.019c0 24.458 0 48.915.17 73.373.084 12.863.422 25.642.592 38.506 0 1.523.338 2.2 2.115 2.285 12.694.846 25.304.17 37.913-1.693 1.693-.253 2.116-.761 2.031-2.37-.253-8.885-.592-17.856-.592-26.741-.17-24.711-.17-49.423-.17-74.22 0-3.3.847-6.516 1.355-9.816.084-.423.254-.846.084-1.185-1.861-4.993-1.015-10.24-1.1-15.402-.084-2.2 0-4.316 0-6.516-14.133-.762-28.012-1.016-42.399.761m100.62 3.978c.593.508.931.846 1.354 1.185 4.824 3.554 8.463 8.04 11.171 13.456 3.47 7.108 4.824 14.81 4.909 22.596.253 25.473.338 50.86.507 76.335v19.21c15.064 1.185 29.366.508 43.837-1.438 0-1.27.085-2.37 0-3.47-.338-6.685-.93-13.287-1.015-19.972-.508-25.304-.846-50.608-1.27-75.91-.169-9.648-.846-19.212-3.977-28.52-2.793-8.464-8.209-13.88-17.349-14.98-8.294-1.015-16.333.254-24.204 3.3-5.078 1.947-9.732 4.57-13.964 8.21m-21.072 168.41c-6.686 3.977-14.048 5.077-21.242 6.516-16.418 3.3-32.92 4.824-49.677 4.4-11.425-.253-22.765-1.607-33.936-3.808-11.002-2.115-18.618-11.086-19.041-22.257-1.523-42.483-1.946-84.882-1.608-127.37.17-16.672.508-33.343.762-49.93.169-10.918 8.124-19.465 19.718-22.004 23.78-5.247 47.9-6.008 72.103-4.316 6.94.508 13.794 1.185 20.734 1.778 5.247.423 9.817 2.454 13.37 5.5 7.11-3.216 13.795-6.77 20.82-9.14 20.649-7.024 41.468-8.124 62.032.593 13.287 5.67 23.188 15.233 30.212 27.843 6.008 10.832 8.97 22.596 10.579 34.698 1.692 12.525 1.185 25.219 1.438 37.829.508 22.765.847 45.53 1.693 68.21.423 10.325 1.946 20.565 2.962 30.889 1.016 10.663-6.347 21.242-16.756 23.865-24.881 6.347-50.269 8.632-75.911 6.855-8.463-.593-16.841-1.862-25.304-3.047-4.908-.761-9.31-3.216-12.948-7.109" clip-path="url(#XMLID_86_)"/><path id="XMLID_5_" d="M343.84 174.67c-8.463-11.002-20.734-16.502-36.898-16.502-7.278 0-14.387 1.1-21.326 3.216-6.94 2.116-13.456 5.162-19.549 9.055-6.009 3.893-11.425 8.632-15.995 14.048-4.655 5.416-8.378 11.51-11.171 18.11 0-6.262.085-12.27.17-18.11.084-5.84.253-11.594.422-17.264-15.318-1.777-30.297-2.708-44.938-2.539a197.792 197.792 0 0 0-43.076 4.993 2515.769 2515.769 0 0 0-.761 51.285 4942.598 4942.598 0 0 0 0 50.1c.084 15.91.338 30.381.592 43.414.339 13.033.677 23.442 1.1 31.312 14.725 3.047 29.704 4.147 44.938 3.3s29.535-3.046 42.822-6.685c-.169-5.416-.423-12.61-.761-21.496s-.508-18.787-.593-29.62c-.084-10.917-.169-22.51-.169-34.782V219.27a21.214 21.214 0 0 1 6.94-6.77c2.792-1.692 5.67-2.539 8.462-2.539 4.401 0 8.04 1.777 10.748 5.332s4.063 9.394 4.063 17.687v23.865c0 9.478.084 19.38.169 29.789.084 10.409.254 20.734.423 31.143.17 10.409.423 19.718.592 28.012 14.725 2.793 30.128 3.893 46.292 3.216 16.164-.677 31.143-2.878 45.107-6.517-1.184-6.431-2.115-14.725-2.708-24.796-.592-10.07-1.1-20.649-1.354-31.65-.338-11.003-.508-21.75-.592-32.244-.085-10.494-.17-19.464-.17-26.912-.084-23.78-4.315-41.214-12.778-52.216" clip-path="url(#XMLID_86_)" fill="#fff"/></g></svg>