<svg width="333.611" height="30.732" viewBox="0 0 88.268 8.131" xml:space="preserve" xmlns="http://www.w3.org/2000/svg"><g stroke-width=".843"><path d="m101.88 13.698-3.378 8.097h4.366l3.38-8.097z" fill="#e40303" style="paint-order:stroke markers fill" transform="translate(-98.499 -13.663)"/><path d="m123.71 13.698-3.378 8.097h4.366l3.38-8.097z" fill="#b10acc" style="paint-order:stroke markers fill" transform="translate(-98.499 -13.663)"/><path d="m119.35 13.698-3.378 8.097h4.366l3.38-8.097z" fill="#0066ff" style="paint-order:stroke markers fill" transform="translate(-98.499 -13.663)"/><path d="m114.98 13.698-3.378 8.097h4.366l3.38-8.097z" fill="#00b335" style="paint-order:stroke markers fill" transform="translate(-98.499 -13.663)"/><path d="m110.61 13.698-3.378 8.097h4.367l3.378-8.097z" fill="#ffed00" style="paint-order:stroke markers fill" transform="translate(-98.499 -13.663)"/><path d="m106.24 13.698-3.378 8.097h4.366l3.38-8.097z" fill="#ff8c00" style="paint-order:stroke markers fill" transform="translate(-98.499 -13.663)"/></g><g stroke-width=".596" aria-label="nowatecza.pl"><path d="M32.231 2.259q.429-.105.848-.162.43-.057.801-.057.887 0 1.335.457.457.458.457 1.468v2.593h-.782v-2.45q0-.429-.076-.696-.076-.266-.22-.41-.133-.152-.333-.21-.19-.056-.42-.056-.19 0-.409.028-.21.02-.41.057v3.737h-.791zM40.701 4.347q0 .524-.153.953-.143.42-.41.725T39.5 6.5q-.372.162-.81.162-.43 0-.801-.162-.362-.171-.63-.476-.266-.305-.419-.725-.143-.429-.143-.953t.143-.953q.153-.43.42-.725.267-.305.629-.467.372-.171.8-.171.44 0 .81.171.373.162.64.467.266.296.41.725.152.429.152.953zm-.81 0q0-.753-.324-1.182-.324-.438-.877-.438-.544 0-.868.438-.314.429-.314 1.182 0 .744.314 1.182.324.429.868.429.553 0 .877-.429.324-.438.324-1.182zM44.351 6.558q-.143-.324-.248-.591l-.21-.534q-.095-.267-.2-.553-.095-.295-.229-.667l-.238.667q-.105.286-.21.553-.095.267-.21.534-.104.267-.247.591h-.591q-.267-1.172-.448-2.316-.172-1.154-.257-2.107h.743l.057.734q.038.353.086.743t.105.849q.067.457.143 1.03.152-.382.257-.668.105-.286.19-.543.087-.258.163-.525.086-.266.181-.6h.591l.172.6q.076.267.162.525l.18.543q.096.286.24.658.085-.524.152-.973.066-.448.114-.838.048-.4.086-.772t.067-.763h.714q-.047.477-.114 1.02T45.39 4.27q-.095.572-.21 1.163-.114.582-.238 1.125zM48.281 5.996q.296 0 .524-.02.239-.018.391-.047V4.614q-.152-.048-.372-.076-.21-.03-.448-.03-.219 0-.429.039-.21.029-.371.114-.162.086-.267.23-.105.133-.105.342 0 .43.286.6.295.163.791.163zm-.076-3.966q.495 0 .829.124.343.124.553.344.21.219.295.533.086.315.086.687v2.764q-.276.048-.734.115-.448.066-.924.066-.363 0-.706-.066-.343-.058-.61-.21-.267-.162-.429-.439t-.162-.705q0-.381.162-.639.172-.267.43-.429.266-.162.6-.228.343-.077.686-.077.467 0 .915.105v-.22q0-.2-.048-.38-.038-.191-.162-.344-.114-.152-.324-.238-.2-.095-.524-.095-.41 0-.715.057t-.467.114l-.095-.648q.162-.076.533-.133.382-.057.81-.057zM52.931 2.135h1.868v.658h-1.868v2.059q0 .333.048.543t.152.343q.115.124.286.172.172.047.42.047.343 0 .553-.057.21-.057.4-.152l.114.667q-.133.057-.429.153-.286.095-.715.095-.495 0-.81-.114-.314-.115-.496-.344-.171-.228-.238-.562-.067-.343-.067-.791v-2.06h-.934v-.657h.934V.895l.782-.133zM57.851 2.031q.896 0 1.382.562.486.553.486 1.688v.276h-3.164q.047.686.448 1.049.41.352 1.143.352.42 0 .715-.066.296-.067.448-.143l.105.667q-.143.076-.514.162-.372.086-.84.086-.571 0-1.01-.172-.429-.181-.715-.486t-.429-.724q-.143-.43-.143-.925 0-.591.182-1.03.18-.438.476-.724t.667-.429q.372-.143.763-.143zm1.068 1.887q0-.562-.296-.886-.295-.334-.782-.334-.276 0-.505.105-.219.105-.381.277-.162.171-.257.39-.096.22-.124.448zM60.611 4.356q0-.6.19-1.039.191-.438.525-.724t.772-.42q.448-.143.953-.143.324 0 .639.048.324.038.686.152l-.18.677q-.315-.114-.582-.143-.258-.038-.525-.038-.343 0-.648.095-.305.086-.534.286-.219.19-.352.505-.134.306-.134.744 0 .42.124.724.124.296.343.496.23.19.544.286.314.095.696.095.305 0 .581-.028.286-.038.62-.153l.114.658q-.334.124-.677.172-.343.057-.743.057-.534 0-.982-.143-.439-.153-.763-.439-.314-.286-.495-.715-.172-.438-.172-1.01zM68.921 2.726q-.172.2-.467.562-.296.353-.639.792-.333.429-.667.905-.334.477-.591.906h2.43v.667h-3.374v-.524q.2-.382.496-.83.305-.457.63-.896.323-.448.628-.848.315-.4.544-.667h-2.174v-.658h3.184zM72.111 5.996q.296 0 .524-.02.239-.018.391-.047V4.614q-.152-.048-.372-.076-.21-.03-.448-.03-.219 0-.429.039-.21.029-.371.114-.162.086-.267.23-.105.133-.105.342 0 .43.286.6.295.163.791.163zm-.076-3.966q.495 0 .829.124.343.124.553.344.21.219.295.533.086.315.086.687v2.764q-.276.048-.734.115-.448.066-.924.066-.363 0-.706-.066-.343-.058-.61-.21-.267-.162-.429-.439t-.162-.705q0-.381.162-.639.172-.267.43-.429.266-.162.6-.228.343-.077.686-.077.467 0 .915.105v-.22q0-.2-.048-.38-.038-.191-.162-.344-.114-.152-.324-.238-.2-.095-.524-.095-.41 0-.715.057t-.467.114l-.095-.648q.162-.076.533-.133.382-.057.81-.057zM77.531 5.948q0 .286-.19.505t-.506.22q-.324 0-.515-.22t-.19-.505q0-.295.19-.515.191-.219.515-.219.315 0 .505.22.191.218.191.514zM82.791 4.356q0-.772-.362-1.192-.362-.429-.944-.429-.324 0-.515.029-.18.029-.286.067v2.793q.134.124.391.229.258.104.534.104.315 0 .534-.124.229-.123.372-.333.143-.22.21-.505.066-.296.066-.639zm.81 0q0 .505-.133.934-.124.42-.372.725-.238.305-.591.476t-.8.172q-.353 0-.62-.086t-.4-.19V8.13h-.792V2.268q.258-.076.658-.152.41-.076.934-.076.477 0 .868.162t.667.467q.276.295.429.724.152.43.152.963zM87.201 6.663q-.42 0-.696-.114t-.438-.344q-.162-.228-.23-.562-.066-.343-.066-.791V.667h-1.277V0h2.059v4.852q0 .333.038.543.048.21.133.343.096.124.23.172.133.048.314.048.276 0 .515-.067t.371-.143l.115.667q-.058.029-.162.076-.105.039-.248.077-.143.038-.315.066-.162.029-.343.029z"/></g></svg>