<svg width="40mm" height="40mm" viewBox="0 0 40 40" xmlns="http://www.w3.org/2000/svg"><path d="M0 0h40v40H0z" fill="#fddd45"/><path d="M0 10h40v30H0z" fill="#fff"/><path d="M0 20h40v20H0z" fill="#720092"/><path d="M0 30h40v10H0zM13.567 14.605v1.798c0 1.911 0 3.822.013 5.733.007 1.005.033 2.003.046 3.008 0 .119.027.172.166.178.992.066 1.977.014 2.962-.132.132-.02.165-.06.158-.185-.02-.694-.046-1.395-.046-2.09-.013-1.93-.013-3.86-.013-5.798 0-.257.066-.509.106-.767.007-.033.02-.066.007-.092-.146-.39-.08-.8-.086-1.203-.007-.172 0-.338 0-.51-1.104-.059-2.189-.079-3.313.06m7.862.31c.046.04.072.067.105.093.377.278.662.628.873 1.051.271.556.377 1.157.384 1.766.02 1.99.026 3.973.04 5.963v1.501c1.176.093 2.294.04 3.424-.112 0-.1.007-.185 0-.271-.026-.523-.073-1.038-.08-1.56-.039-1.978-.065-3.954-.098-5.931-.014-.754-.066-1.501-.311-2.228-.218-.661-.641-1.085-1.356-1.17-.647-.08-1.276.02-1.89.257-.397.152-.76.357-1.091.642m-1.647 13.157c-.522.31-1.097.396-1.66.509a17.377 17.377 0 0 1-3.88.344 15.502 15.502 0 0 1-2.651-.298 1.809 1.809 0 0 1-1.488-1.739 226.972 226.972 0 0 1-.126-9.95c.014-1.303.04-2.605.06-3.901.013-.853.635-1.52 1.54-1.719 1.858-.41 3.743-.47 5.634-.337.542.04 1.077.092 1.62.139.41.033.766.191 1.044.43.555-.252 1.078-.53 1.626-.715 1.614-.548 3.24-.634 4.847.047 1.038.443 1.811 1.19 2.36 2.175.47.846.7 1.765.826 2.71.133.98.093 1.97.113 2.956.04 1.778.066 3.557.132 5.329.033.806.152 1.606.231 2.413.08.833-.495 1.66-1.309 1.865a18.66 18.66 0 0 1-5.93.535c-.661-.046-1.316-.145-1.977-.238a1.742 1.742 0 0 1-1.012-.555" fill="#2d2d2b"/><path d="M26.863 13.646c-.661-.86-1.62-1.29-2.883-1.29-.568 0-1.124.087-1.666.252a6.171 6.171 0 0 0-1.527.707c-.47.305-.893.675-1.25 1.098-.363.423-.654.899-.872 1.415 0-.49.007-.959.013-1.415.007-.456.02-.906.033-1.349a27.715 27.715 0 0 0-3.51-.198 15.452 15.452 0 0 0-3.366.39 196.16 196.16 0 0 0-.06 4.006 364.58 364.58 0 0 0 0 3.914c.007 1.243.027 2.374.047 3.392.026 1.018.053 1.832.086 2.446 1.15.238 2.32.324 3.51.258a16.022 16.022 0 0 0 3.346-.522 258.01 258.01 0 0 0-.06-1.68 78.006 78.006 0 0 1-.046-2.313c-.007-.853-.013-1.76-.013-2.718V17.13c.139-.218.324-.397.542-.529.218-.132.443-.198.661-.198.344 0 .628.139.84.416s.317.734.317 1.382v1.865c0 .74.007 1.514.013 2.327.007.813.02 1.62.034 2.433.013.813.033 1.54.046 2.188 1.15.219 2.354.305 3.616.252a16.698 16.698 0 0 0 3.524-.51 16.285 16.285 0 0 1-.211-1.937 69.178 69.178 0 0 1-.106-2.472c-.027-.86-.04-1.7-.046-2.52-.007-.82-.014-1.52-.014-2.102-.007-1.858-.337-3.22-.998-4.079" fill="#fff"/></svg>