<svg width="605" height="605" xml:space="preserve" xmlns="http://www.w3.org/2000/svg"><circle cx="302.5" cy="302.5" r="302.5" fill="#2d2d2b"/><path d="M302.5 23.1c-101.05 0-189.62 53.624-238.71 134-25.868 42.35-40.787 92.121-40.787 145.4 0 53.31 14.937 103.12 40.832 145.5h477.33c25.901-42.392 40.838-92.205 40.838-145.5 0-53.264-14.931-103.04-40.816-145.4-49.101-80.352-137.65-134-238.68-134z" fill="#720092"/><path d="M302.5 23.1c-101.05 0-189.62 53.624-238.71 134-25.868 42.35-40.787 92.121-40.787 145.4h559c0-53.264-14.931-103.04-40.816-145.4-49.101-80.352-137.65-134-238.68-134z" fill="#fff"/><path d="M302.5 23.1c-101.05 0-189.62 53.624-238.71 134h477.4c-49.101-80.352-137.65-134-238.68-134z" fill="#fddd45"/><path d="M205.2 220.9v27.2c0 28.9 0 57.8.2 86.7.1 15.2.5 30.3.7 45.5 0 1.8.4 2.6 2.5 2.7 15 1 29.9.2 44.8-2 2-.3 2.5-.9 2.4-2.8-.3-10.5-.7-21.1-.7-31.6-.2-29.2-.2-58.4-.2-87.7 0-3.9 1-7.7 1.6-11.6.1-.5.3-1 .1-1.4-2.2-5.9-1.2-12.1-1.3-18.2-.1-2.6 0-5.1 0-7.7-16.7-.9-33.1-1.2-50.1.9m118.9 4.7c.7.6 1.1 1 1.6 1.4 5.7 4.2 10 9.5 13.2 15.9 4.1 8.4 5.7 17.5 5.8 26.7.3 30.1.4 60.1.6 90.2v22.7c17.8 1.4 34.7.6 51.8-1.7 0-1.5.1-2.8 0-4.1-.4-7.9-1.1-15.7-1.2-23.6-.6-29.9-1-59.8-1.5-89.7-.2-11.4-1-22.7-4.7-33.7-3.3-10-9.7-16.4-20.5-17.7-9.8-1.2-19.3.3-28.6 3.9-6 2.3-11.5 5.4-16.5 9.7m-24.9 199c-7.9 4.7-16.6 6-25.1 7.7-19.4 3.9-38.9 5.7-58.7 5.2-13.5-.3-26.9-1.9-40.1-4.5-13-2.5-22-13.1-22.5-26.3-1.8-50.2-2.3-100.3-1.9-150.5.2-19.7.6-39.4.9-59 .2-12.9 9.6-23 23.3-26 28.1-6.2 56.6-7.1 85.2-5.1 8.2.6 16.3 1.4 24.5 2.1 6.2.5 11.6 2.9 15.8 6.5 8.4-3.8 16.3-8 24.6-10.8 24.4-8.3 49-9.6 73.3.7 15.7 6.7 27.4 18 35.7 32.9 7.1 12.8 10.6 26.7 12.5 41 2 14.8 1.4 29.8 1.7 44.7.6 26.9 1 53.8 2 80.6.5 12.2 2.3 24.3 3.5 36.5 1.2 12.6-7.5 25.1-19.8 28.2-29.4 7.5-59.4 10.2-89.7 8.1-10-.7-19.9-2.2-29.9-3.6-5.8-.9-11-3.8-15.3-8.4" fill="#2d2d2b"/><path d="M406.3 206.4c-10-13-24.5-19.5-43.6-19.5-8.6 0-17 1.3-25.2 3.8s-15.9 6.1-23.1 10.7c-7.1 4.6-13.5 10.2-18.9 16.6-5.5 6.4-9.9 13.6-13.2 21.4 0-7.4.1-14.5.2-21.4s.3-13.7.5-20.4c-18.1-2.1-35.8-3.2-53.1-3-17.3.1-34.3 2.1-50.9 5.9-.5 19.8-.8 40-.9 60.6s-.1 40.3 0 59.2c.1 18.8.4 35.9.7 51.3.4 15.4.8 27.7 1.3 37 17.4 3.6 35.1 4.9 53.1 3.9s34.9-3.6 50.6-7.9c-.2-6.4-.5-14.9-.9-25.4s-.6-22.2-.7-35c-.1-12.9-.2-26.6-.2-41.1v-44c2.1-3.3 4.9-6 8.2-8s6.7-3 10-3c5.2 0 9.5 2.1 12.7 6.3s4.8 11.1 4.8 20.9v28.2c0 11.2.1 22.9.2 35.2s.3 24.5.5 36.8.5 23.3.7 33.1c17.4 3.3 35.6 4.6 54.7 3.8s36.8-3.4 53.3-7.7c-1.4-7.6-2.5-17.4-3.2-29.3s-1.3-24.4-1.6-37.4c-.4-13-.6-25.7-.7-38.1s-.2-23-.2-31.8c-.1-28.1-5.1-48.7-15.1-61.7" fill="#fff"/></svg>