<svg width="951.88" height="134.65" xml:space="preserve" xmlns="http://www.w3.org/2000/svg"><style>.st0,.st1{clip-path:url(#XMLID_59_);fill:#2d2d2b}.st1{fill:#fff}</style><path id="XMLID_32_" class="st0" d="M504.7 100.42c-3.4 11-11.6 13-20.3 14.2-9.6 1.4-19.2 1.4-28.8-.6-1.9-.4-4.1 0-6.1.4-10.3 2.2-20.6 1.7-30.8-.1-1.8-.3-3.8-.3-5.5.2-8.8 2.7-17.3 2.6-25.9-.8-1.5-.6-3.5-.7-5.1-.4-12.7 2.6-25.4 3.2-38.2.4-1.7-.4-3.6 0-5.3.3-11.1 2.1-22.2 2.4-33.3-.2-1.5-.4-3.3-.2-4.9.1-10.4 2.1-20.8 2.3-31.3.4-1.3-.2-3-.4-3.9-1.2-3.6-3.2-6.7-1.6-10.4.1-8.9 4.1-18.2 3.9-27.6 1.7-2.2-.5-4.6-.5-6.9-.5-9.1-.1-18.1-.1-27.2-.1-.4 0-.9 0-1.2-.2-5.6-3.5-10.8-1-16.3.4-13.4 3.4-26.6 2.5-39.1-3.8-2.2-1.1-3.7-1.1-6 .1-9.1 4.6-19.1 4.9-29.1 4.6-4.4-.1-8.7-1.3-13.1-1.7-1.6-.2-3.3.2-4.9.5-11.3 1.6-22.5 2.1-33.7-.6-1.5-.4-3.3-.1-4.9.3-10.5 2.2-21.1 2.4-31.7.4-7.4-1.4-13.1-7.4-13.2-14.9.1-20.2 0-40.4.2-60.7.1-7 5.4-12.6 12.8-14.3 10.9-2.5 21.9-2.1 33-1.2 2.9.2 6 .1 8.8-.8 6.3-1.9 12.6-2.7 19.2-1.7 1.1.2 3-.7 3.4-1.6C84.5 4.02 97-.88 112.7.42c14.4 1.2 23.4 9.3 27.8 23.4 12.8-4.3 25.8-4.9 39.3-1 2.8-12.9 13.3-14.1 23.7-14.8 7.7-.5 15.4.1 23.1.6 5.9.4 10.1 3.7 13.1 8.9.7 1.2 2.4 2.2 3.8 2.5 3.6.7 7.3 1 11.3 1.4 5.8-15 17.3-21.8 33.4-21.4 15.3.4 25.5 7.8 30.3 21.8 8.6.6 16.8 1.3 25 1.8 1 .1 2.1-.4 3.1-.7 13.2-4.6 25.8-4.1 37 5.4 14.9-7.9 30.7-9.6 47-7.2 5.5.8 10.6 3.5 16 5.3 1.1.4 2.6 1 3.3.6 7.1-4.2 15-4.4 22.8-4.5 5.6-.1 11.3.6 16.9.8 2.1 0 4.4-.3 6.4-1.1 7.1-2.5 14.1-2.6 21.1.7 1.6.7 3.7.6 5.5.6 9.4 0 18.7 0 28.1-.1 2.8 0 5.8-.1 8.4-.9 13.7-4 26.2-2.8 37 7.9 7.9-5.6 16.7-8.8 26.3-9.7 13.2-1.2 26 .2 37.4 7.6 2.3 1.5 3.7 1.2 5.8-.1 17.7-10.2 36.3-11 54.6-2.6 5.6 2.6 9.1 2.8 14.5.2 14.8-7.1 30.4-7.6 45.9-1.8 13.1 4.8 20.1 14.1 21.7 28.3h12.2v-10.7c.1-9.6 4.4-15.1 13.8-17.3 10.5-2.4 21.1-1.9 31.7-1.1 2 .1 4.1 0 6-.7 8.1-3 16.2-2.7 24.7-.2 1.8-6.6 5.9-11 12.4-12.6 3.7-.9 7.6-1.7 11.4-1.7 7.6-.1 15.2 0 22.7.7 8.9.8 14.6 7.3 14.6 16.1.1 24.2.1 48.4 0 72.7 0 7.9-5.2 13.9-13.7 15.9-11.3 2.6-22.7 3.2-34.1.9-.7-.1-1.5-.1-2-.5-4.9-3.9-9.6-2.1-14.2.5-.2.1-.5.2-.8.3-6.2.8-10.7 2.8-12.8 9.8-.9 3.1-5.8 6-9.4 7.1-11.8 3.6-23.9 3.9-36 1.9-8.6-1.4-13-6.8-14.4-17.5-5.6-.4-11.2-.6-16.7-1.3-2.7-.4-5.6-1.2-7.7-2.8-3.2-2.3-5.7-1.5-8.9-.1-17.7 7.4-35.2 7-51.9-3.2-2.5-1.5-4-1.4-6.5 0-20 10.5-40.1 11.7-60.4.6-1.1-.6-2.9-.7-4-.1-18.4 9.9-37.1 10.1-56.1 2-.9-.4-2.2-.4-3-.1-14.3 5.9-29 5.7-43.9 3-1.6-.3-3.3-.4-4.9-.1-10.2 2.2-20.5 2.5-30.8.8-7.4-1.2-12.3-5.3-14.9-14.2" clip-path="url(#XMLID_59_)"/><path id="XMLID_9_" class="st1" d="M922.8 23.917c-2.8 0-5.5.1-8.2.4-2.6.3-5.3.7-7.9 1.3-.1 7-.2 14.1-.3 21.4s-.1 14.2-.1 20.8.1 12.6.2 18.1.2 9.8.4 13.1c4.9 1 9.9 1.4 14.9 1.1 5.1-.3 9.8-1 14.2-2.2-.1-3.2-.3-7.4-.4-12.8s-.2-11.4-.2-18 0-13.6.1-20.9.2-14.4.4-21.3c-4.4-.7-8.8-1-13.1-1m-63 64c-.1-5.1-.2-10.4-.2-15.9s0-11 .1-16.4c.6-.7 1.3-1.3 2.2-1.8.8-.5 1.7-.7 2.6-.7 1.7 0 3.4 1.4 4.9 4.2s2.3 7.2 2.3 13.3c0 6.3-.9 10.9-2.6 13.7-1.7 2.9-3.9 4.3-6.4 4.3-1-.1-1.9-.3-2.9-.7m12.1-50.1c-2.1.8-3.9 1.9-5.6 3.3-1.6 1.4-3 3-4.2 4.9-1.1 1.8-1.9 3.8-2.4 5.9.1-2.1.1-4.2.1-6.3 0-2 0-4 .1-6-5.1-.6-10.1-.9-14.9-.9-4.9 0-9.6.6-14.3 1.7-.1 7.3-.2 14.8-.3 22.5 0 7.7 0 15.1.1 22 .1 7 .2 13.3.3 19.1.1 5.7.2 10.3.3 13.8 4.9 1 9.9 1.4 15 1.1s10.2-1.1 15.1-2.4c-.3-2.4-.6-5.5-.8-9.4-.2-3.8-.3-8.1-.5-12.9 2.2 2.3 4.5 4 6.9 5 2.4 1.1 5.1 1.6 8.1 1.6 3.6 0 6.9-.8 10.1-2.3 3.2-1.5 5.9-3.7 8.2-6.5s4.1-6.3 5.5-10.4c1.3-4.1 2-8.7 2-13.9 0-4.7-.6-9-1.7-12.8-1.1-3.9-2.6-7.2-4.6-9.9s-4.3-4.9-7-6.4-5.6-2.3-8.8-2.3c-2.4.3-4.6.7-6.7 1.5m-77.3 58c2.8 2.9 7 4.3 12.6 4.3 5.4 0 9.6-1.4 12.6-4.2s4.5-6.7 4.5-11.6c0-4.6-1.4-8.4-4.2-11.2s-7-4.3-12.6-4.3c-5.4 0-9.6 1.4-12.6 4.3s-4.5 6.7-4.5 11.5c0 4.6 1.4 8.4 4.2 11.2m-36.9-14c-2.6-4.1-4-10.8-4-20 0-6.4.6-11 1.8-13.6s2.7-4 4.6-4c1 0 1.9.3 2.8 1 .9.6 1.6 1.7 2.3 3.2s1.2 3.5 1.6 5.9.6 5.4.7 9c2.4.3 4.7.2 7-.3 2.2-.5 4.2-1.2 5.9-2.2s3.1-2.2 4.1-3.7 1.6-3.2 1.6-5-.6-3.6-1.7-5.5c-1.1-1.8-2.7-3.5-4.9-5-2.1-1.5-4.8-2.7-8-3.6s-6.9-1.4-11.1-1.4c-5.5 0-10.5.7-14.9 2.2-4.4 1.4-8.2 3.5-11.3 6.2s-5.5 6.1-7.1 10c-1.7 4-2.5 8.4-2.5 13.5 0 4.8.8 9.1 2.3 13.1s3.7 7.4 6.6 10.3 6.4 5.1 10.6 6.7c4.2 1.6 8.9 2.4 14.2 2.4 3.4 0 6.6-.4 9.5-1.1 2.9-.7 5.6-1.6 7.9-2.8 2.4-1.2 4.5-2.5 6.4-4.1s3.5-3.2 4.7-4.9c-.3-1.1-.7-2.1-1.4-3s-1.4-1.7-2.3-2.2c-2.1 1.6-4.5 2.9-7 3.8s-5 1.4-7.4 1.4c-4.7-.1-8.4-2.2-11-6.3m-84.7-3.8c-1.2.8-2.3 1.8-3.2 2.9s-1.6 2.3-2.2 3.5-.9 2.5-.9 3.9c0 1.9.6 3.7 1.9 5.3s3 2.9 5.2 4 4.7 2 7.7 2.6c2.9.6 6.1.9 9.6.9 4.2 0 8.2-.4 12-1.2 3.8-.8 7.1-1.9 10-3.5s5.2-3.5 6.8-5.9c1.7-2.3 2.5-5.1 2.5-8.2 0-2.5-.7-5-2.2-7.4-1.5-2.5-3.3-4.9-5.6-7.3-2.2-2.4-4.7-4.7-7.2-6.9-2.6-2.2-5-4.3-7.2-6.2s-4.1-3.7-5.6-5.4c-1.5-1.6-2.2-3-2.2-4.2 0-.5.2-1 .5-1.4s.9-.6 1.6-.6c.9 0 2 .4 3.3 1.1s2.6 1.8 4 3.2 2.7 3.2 4.1 5.2c1.3 2.1 2.5 4.5 3.6 7.1 1.1-.3 2.3-.9 3.4-1.7s2.2-1.7 3.1-2.7 1.7-2.1 2.3-3.3.9-2.4.9-3.7-.4-2.7-1.2-4.1-2.1-2.6-3.9-3.7-4.2-2-7.1-2.7c-3-.7-6.6-1-10.9-1-8.9 0-15.8 1.6-20.8 4.7-4.9 3.2-7.4 7.3-7.4 12.6 0 2.8.7 5.5 2.1 8s3.1 5 5.1 7.3 4.3 4.5 6.6 6.6c2.4 2.1 4.6 4 6.6 5.9 2 1.8 3.8 3.6 5.1 5.2 1.4 1.6 2.1 3.1 2.1 4.5 0 1.8-1 2.7-2.9 2.7-.9 0-1.9-.3-3-.9s-2.4-1.6-3.8-3-2.8-3.3-4.3-5.6-3.1-5.2-4.7-8.6c-1.3.5-2.6 1.1-3.8 2m-45.5 11c-.9-2.3-1.7-5.1-2.3-8.5s-1-7-1.3-10.9-.4-7.4-.4-10.6c0-9.2 1.3-13.8 4-13.8 2.1 0 3.9 2.7 5.3 8.2 1.4 5.4 2.1 13.8 2.1 25 0 9.4-1.3 14.1-4 14.1-1.3-.1-2.5-1.2-3.4-3.5m-24 3.6c5.8 5.6 14.3 8.4 25.3 8.4 6.1 0 11.4-.9 15.8-2.6 4.4-1.7 8.1-4 10.9-7 2.8-2.9 5-6.4 6.3-10.3 1.4-3.9 2.1-8.1 2.1-12.5 0-10.1-2.9-18-8.7-23.6s-14.3-8.4-25.3-8.4c-6.1 0-11.4.9-15.8 2.6s-8.1 4-11 7-5 6.4-6.3 10.3-2 8.1-2 12.5c-.1 10.1 2.8 18 8.7 23.6m-18.7-50.5c-2.8-3.7-6.9-5.5-12.3-5.5-2.4 0-4.8.4-7.1 1.1s-4.5 1.7-6.5 3-3.8 2.9-5.3 4.7-2.8 3.8-3.7 6c0-2.1 0-4.1.1-6 0-1.9.1-3.9.2-5.7-5.1-.6-10.1-.9-14.9-.9-4.9 0-9.6.6-14.3 1.7-.1 5.6-.2 11.2-.3 17v16.6c0 5.3.1 10.1.2 14.4s.2 7.8.4 10.4c4.9 1 9.9 1.4 14.9 1.1 5.1-.3 9.8-1 14.2-2.2-.1-1.8-.2-4.2-.3-7.1s-.2-6.2-.2-9.9c0-3.6-.1-7.5-.1-11.6v-12.3c.6-.9 1.4-1.7 2.3-2.3s1.9-.9 2.8-.9c1.5 0 2.7.6 3.6 1.8s1.4 3.1 1.4 5.9v7.9c0 3.2 0 6.5.1 9.9 0 3.5.1 6.9.2 10.4s.1 6.6.2 9.3c4.9.9 10 1.3 15.4 1.1 5.4-.2 10.4-1 15-2.2-.4-2.1-.7-4.9-.9-8.2-.2-3.4-.4-6.9-.5-10.5-.1-3.7-.2-7.2-.2-10.7s-.1-6.5-.1-9c-.1-7.9-1.5-13.6-4.3-17.3m-89.3.8c-3.2 4.2-5.5 10.5-7.1 18.9 0-7.1.1-14.5.3-22.1-5.1-.6-10.1-.9-14.9-.9-4.9 0-9.6.6-14.3 1.7-.1 5.6-.2 11.2-.3 17v16.6c0 5.3.1 10.1.2 14.4s.2 7.8.4 10.4c4.9 1 9.9 1.4 14.9 1.1 5.1-.3 9.8-1 14.2-2.2-.2-3-.3-7.1-.4-12.4-.1-5.2-.1-11.1-.1-17.7 1.6-1 3.5-1.8 5.5-2.3 2.1-.5 4.2-.8 6.3-.9s4.2 0 6.2.4 3.8 1 5.2 1.8c1.4-3.1 2.4-6 3.1-8.7.6-2.7 1-5.3 1-7.6 0-4.2-.9-7.6-2.6-10.1s-4-3.7-6.8-3.7c-4 0-7.6 2.1-10.8 6.3m-83.4 40.4c-.8-1-1.2-2.3-1.2-3.9 0-1.9.6-3.4 1.8-4.6s2.8-1.8 4.8-1.8c.6 0 1.2.1 1.9.2.6.1 1.3.3 1.9.5v5.4c-.3 1.9-1.1 3.4-2.2 4.3s-2.3 1.4-3.6 1.4c-1.5.1-2.6-.4-3.4-1.5m30.7-39.5c-5.1-4.8-12.7-7.2-22.7-7.2-5.6 0-10.5.4-14.6 1.2s-7.5 1.8-10.2 3.1-4.7 2.7-6 4.3-2 3.2-2 4.8c0 1.2.4 2.4 1.2 3.7s2 2.4 3.7 3.5 3.8 1.9 6.3 2.6 5.6 1 9.1 1c.1-5 .9-8.9 2.5-11.7s3.4-4.2 5.3-4.2c.7 0 1.5.3 2.2.9s1.3 1.6 1.9 3.2c.5 1.5 1 3.7 1.3 6.4s.5 6.2.5 10.5v1.8c-1.9-.7-4-1.3-6.3-1.8-2.3-.4-4.8-.7-7.6-.7-3.5 0-6.7.4-9.5 1.3-2.9.9-5.3 2.1-7.4 3.7s-3.7 3.5-4.8 5.8c-1.1 2.2-1.7 4.8-1.7 7.6 0 2.6.5 5 1.4 7.1s2.1 3.9 3.7 5.4 3.4 2.7 5.5 3.5c2.1.8 4.4 1.3 6.9 1.3 1.9 0 3.9-.3 5.9-.9 2-.6 3.9-1.4 5.7-2.5s3.4-2.5 4.9-4.2c1.4-1.7 2.6-3.7 3.4-5.9.1 2.8.2 5 .3 6.6.1 1.7.2 3.3.4 4.8 2.4.5 4.9.9 7.5 1.2 2.6.2 5.2.3 7.9.2 2.6-.1 5.2-.4 7.7-.8s4.8-1.1 7-1.9c-.7-2.3-1.1-6-1.4-11-.2-5-.4-11.7-.4-20.3 0-10.1-2.6-17.7-7.6-22.4m-68.8-1.7c-2.9-3.7-6.9-5.5-12.3-5.5-2.4 0-4.8.4-7.1 1.1s-4.5 1.7-6.5 3-3.8 2.9-5.3 4.7-2.8 3.8-3.7 6c0-2.1 0-4.1.1-6 0-1.9.1-3.9.2-5.7-5.1-.6-10.1-.9-14.9-.9-4.9 0-9.6.6-14.3 1.7-.1 5.6-.2 11.2-.3 17v16.6c0 5.3.1 10.1.2 14.4s.2 7.8.4 10.4c4.9 1 9.9 1.4 14.9 1.1 5.1-.3 9.8-1 14.2-2.2-.1-1.8-.2-4.2-.3-7.1s-.2-6.2-.2-9.9c0-3.6-.1-7.5-.1-11.6v-12.3c.6-.9 1.4-1.7 2.3-2.3s1.9-.9 2.8-.9c1.5 0 2.7.6 3.6 1.8s1.4 3.1 1.4 5.9v7.9c0 3.2 0 6.5.1 9.9 0 3.5.1 6.9.2 10.4s.1 6.6.2 9.3c4.9.9 10 1.3 15.4 1.1 5.4-.2 10.4-1 15-2.2-.4-2.1-.7-4.9-.9-8.2-.2-3.4-.4-6.9-.5-10.5-.1-3.7-.2-7.2-.2-10.7s-.1-6.5-.1-9c-.1-7.9-1.5-13.6-4.3-17.3m-88.1 7.8c-4.9 0-9.6.6-14.3 1.7-.1 4.8-.1 9.5-.1 14.2s0 9.2.1 13.3c.1 4.2.2 7.9.3 11.4.1 3.4.2 6.2.3 8.4 4.9 1 9.9 1.4 14.9 1.1 5.1-.3 9.8-1 14.2-2.2-.1-2.1-.2-4.8-.3-8.3s-.1-7.3-.2-11.5c0-4.2-.1-8.7-.1-13.4s0-9.3.1-13.9c-5.1-.5-10-.8-14.9-.8m-12-6.5c2.8 2.9 7 4.3 12.6 4.3 5.4 0 9.6-1.4 12.6-4.2s4.5-6.7 4.5-11.6c0-4.6-1.4-8.4-4.2-11.2s-7-4.3-12.6-4.3c-5.4 0-9.6 1.4-12.6 4.3s-4.5 6.7-4.5 11.5c.1 4.6 1.5 8.4 4.2 11.2m-49.9 45c.3-2.5.6-5.7.7-9.6.1-3.8.2-8.6.2-14.3v-8.4c.6-.7 1.3-1.3 2.2-1.8.9-.4 1.7-.7 2.5-.7 1.7 0 3.4 1.4 4.9 4.2s2.3 7.2 2.3 13.3c0 6.3-.9 10.9-2.6 13.7-1.7 2.9-3.9 4.3-6.4 4.3-1.3.1-2.5-.2-3.8-.7m13-50.6c-2 .8-3.9 1.9-5.5 3.3s-3 3-4.2 4.8c-1.1 1.8-1.9 3.8-2.4 5.9 0-4.5 0-9 .1-13.5s.2-9 .3-13.4c-5.1-.7-10.1-1-14.9-.9-4.9.1-9.6.6-14.3 1.7-.1 7-.1 14.1-.2 21.4s-.1 14.2-.2 20.8v18.1c0 5.5 0 9.8-.1 13.1 4.2.7 8.4 1.1 12.7 1.1 4.2 0 8.2-.4 12.1-1.2.5-.5 1-1.1 1.4-1.7s.7-1.3 1.1-2.2c5 4 10.6 5.9 16.9 5.9 3.7 0 7.1-.8 10.3-2.3 3.2-1.5 6-3.7 8.3-6.5s4.2-6.3 5.5-10.4 2-8.7 2-13.9c0-4.7-.6-9-1.7-12.8-1.1-3.9-2.6-7.2-4.6-9.9s-4.3-4.9-7-6.4-5.6-2.3-8.8-2.3c-2.5.1-4.7.5-6.8 1.3m-73.5 7c.6.3 1.1 1.1 1.5 2.2s.7 2.7.8 4.8 0 4.9-.3 8.5h-8.1c0-3.2.1-5.9.3-7.9.2-2.1.5-3.7.9-4.9s.8-2 1.4-2.5c.5-.5 1.1-.7 1.8-.7.5 0 1.1.1 1.7.5m16.3 41.8c-2.5.9-5 1.4-7.4 1.4-9 0-13.9-7-14.9-20.9h32.1c1.4-10.1-.3-17.7-5.2-22.8s-12.3-7.7-22.3-7.7c-5.7 0-10.7.8-14.9 2.5-4.2 1.6-7.7 3.9-10.6 6.7-2.8 2.9-4.9 6.2-6.3 10.1s-2.1 8.1-2.1 12.6c0 4.8.8 9.1 2.3 13.1s3.7 7.4 6.6 10.3 6.4 5.1 10.6 6.7c4.2 1.6 8.9 2.4 14.2 2.4 3.4 0 6.6-.4 9.5-1.1 2.9-.7 5.6-1.6 7.9-2.8 2.4-1.2 4.5-2.5 6.4-4.1s3.5-3.2 4.7-4.9c-.3-1.1-.7-2.1-1.4-3s-1.4-1.7-2.3-2.2c-2.1 1.5-4.4 2.8-6.9 3.7m-72.2-36.7c-4.9 0-9.6.6-14.3 1.7-.1 4.8-.1 9.5-.1 14.2s0 9.2.1 13.3c.1 4.2.2 7.9.3 11.4.1 3.4.2 6.2.3 8.4 4.9 1 9.9 1.4 14.9 1.1 5.1-.3 9.8-1 14.2-2.2-.1-2.1-.2-4.8-.3-8.3s-.1-7.3-.2-11.5c0-4.2-.1-8.7-.1-13.4s0-9.3.1-13.9c-5.1-.5-10-.8-14.9-.8m-12-6.5c2.8 2.9 7 4.3 12.6 4.3 5.4 0 9.6-1.4 12.6-4.2s4.5-6.7 4.5-11.6c0-4.6-1.4-8.4-4.2-11.2s-7-4.3-12.6-4.3c-5.4 0-9.6 1.4-12.6 4.3s-4.5 6.7-4.5 11.5c.1 4.6 1.4 8.4 4.2 11.2m-15.1-1.3c-2.8-3.7-6.9-5.5-12.3-5.5-2.4 0-4.8.4-7.1 1.1s-4.5 1.7-6.5 3-3.8 2.9-5.3 4.7-2.8 3.8-3.7 6c0-2.1 0-4.1.1-6 0-1.9.1-3.9.2-5.7-5.1-.6-10.1-.9-14.9-.9-4.9 0-9.6.6-14.3 1.7-.1 5.6-.2 11.2-.3 17v16.6c0 5.3.1 10.1.2 14.4s.2 7.8.4 10.4c4.9 1 9.9 1.4 14.9 1.1 5.1-.3 9.8-1 14.2-2.2-.1-1.8-.2-4.2-.3-7.1s-.2-6.2-.2-9.9v-23.9c.6-.9 1.4-1.7 2.3-2.3s1.9-.9 2.8-.9c1.5 0 2.7.6 3.6 1.8s1.4 3.1 1.4 5.9v7.9c0 3.2 0 6.5.1 9.9 0 3.5.1 6.9.2 10.4s.1 6.6.2 9.3c4.9.9 10 1.3 15.4 1.1 5.4-.2 10.4-1 15-2.2-.4-2.1-.7-4.9-.9-8.2-.2-3.4-.4-6.9-.5-10.5-.1-3.7-.2-7.2-.2-10.7s-.1-6.5-.1-9c-.2-7.9-1.6-13.6-4.4-17.3" clip-path="url(#XMLID_59_)"/><path id="XMLID_8_" class="st1" d="M807.3 101.82c9.8 0 17.7-7.9 17.7-17.7s-7.9-17.7-17.7-17.7-17.7 7.9-17.7 17.7c-.1 9.8 7.9 17.7 17.7 17.7" clip-path="url(#XMLID_59_)"/><path id="XMLID_7_" d="M807.3 66.317c-6.6 0-12.3 3.6-15.4 8.9h30.7c-3-5.3-8.7-8.9-15.3-8.9" clip-path="url(#XMLID_59_)" style="clip-path:url(#XMLID_59_);fill:#fddd45"/><path id="XMLID_6_" d="M822.6 93.017c1.5-2.6 2.4-5.6 2.4-8.9h-35.5c0 3.2.9 6.3 2.4 8.9z" clip-path="url(#XMLID_59_)" style="clip-path:url(#XMLID_59_);fill:#720092"/><path id="XMLID_5_" class="st0" d="M807.3 101.82c6.6 0 12.3-3.6 15.4-8.9H792c3 5.4 8.7 8.9 15.3 8.9" clip-path="url(#XMLID_59_)"/><path id="XMLID_4_" d="M807.3 101.22c9.4 0 17.1-7.7 17.1-17.1s-7.7-17.1-17.1-17.1-17.1 7.7-17.1 17.1 7.6 17.1 17.1 17.1z" clip-path="url(#XMLID_59_)" style="clip-path:url(#XMLID_59_);fill:none;stroke:#fff;stroke-width:1.005"/></svg>