<svg xmlns="http://www.w3.org/2000/svg" viewBox="0 0 700 420">
<path fill="#a70cff" d="m0,0h700v420H0"/>
<path fill="#9884ff" d="m0,0h700v360H0"/>
<path fill="#6fbcff" d="m0,0h700v300H0"/>
<path fill="#feffa5" d="m0,0h700v240H0"/>
<path fill="#ffb580" d="m0,0h700v180H0"/>
<path fill="#ff9695" d="m0,0h700v120H0"/>
<path fill="#ff618f" d="m0,0h700v60H0"/>
<path d="m353 124c-9-0.0235-18 0.454-27 1.38-26.4 2.77-52.4 9.97-76.2 21.9-19.3 9.75-37 22.8-51.6 38.8-15 16.5-26.5 36.3-33.1 57.6-3.38 10.9-5.66 22.1-6.72 33.4-0.497 5.34-0.832 10.7-0.779 16.1 0.114 0.453-0.224 1.36 0.171 1.53h384c-1e-3 -1.08-3e-3 -2.17-4e-3 -3.26-0.0989-12.6-1.82-25.2-4.88-37.5-1.4-5.48-3.18-10.8-5.02-16.2-1.63-4.45-3.63-8.75-5.64-13-2.96-6.23-6.39-12.2-10.2-18-6.39-9.72-13.8-18.7-22.1-26.9-12.9-12.7-27.8-23.4-43.8-31.9-5.94-3.1-12-6-18.2-8.5-25-10.2-51.9-15.4-78.9-15.6zm-7.03 11.2c5.42-0.106 10.9 0.0225 16.3 0.4 8.84 0.603 17.6 1.76 26.3 3.52 25.8 5.19 50.6 15.2 72.5 29.9 6.37 4.26 12.4 8.95 18.1 14.1 7.71 6.81 14.8 14.3 21 22.6 9.04 12 16.2 25.4 21 39.6 2.07 6.34 3.68 12.8 4.74 19.4 0.823 5.06 1.41 10.2 1.61 15.3 0.36 0.778-0.196 1.93-1.15 1.71-1.48 0.0713-2.96 0.112-4.44 0.0227-0.691-0.179-1.62 0.2-2.12-0.472-0.244-0.83-0.194-1.73-0.334-2.58-1.3-11.9-4.06-23.7-8.38-34.9-3.43-9.07-7.99-17.7-13.4-25.7-5.66-8.43-12.3-16.2-19.7-23.1-4.65-4.41-9.61-8.49-14.8-12.3-3.06-2.3-6.31-4.33-9.52-6.41-8.3-5.24-17.1-9.75-26.1-13.7-11.6-4.96-23.6-8.8-35.8-11.6-7.53-1.7-15.2-2.98-22.8-3.79-9.34-0.951-18.8-0.901-28.1-0.289-14.3 0.978-28.5 3.33-42.4 6.95-9.05 2.38-17.9 5.38-26.6 8.92-15.3 6.41-29.8 14.8-42.6 25.4-13.1 10.9-24.1 24.2-32.4 39-3.06 5.45-5.72 11.1-7.98 16.9-4.73 11.9-7.95 24.4-9.85 37-0.338 0.924-1.5 0.627-2.26 0.643-2.08 0.0167-4.15-0.0701-6.23-0.177 0.0525-4.19 0.695-8.34 1.24-12.5 1.91-12.8 5.58-25.4 11.1-37.2 4.67-10.2 10.6-19.9 17.6-28.7 9.93-12.6 21.8-23.5 35-32.6 8.81-6.06 18.1-11.4 27.8-15.9 21-9.79 43.7-16 66.7-18.4 5.4-0.559 10.8-0.9 16.2-1.01zm13.1 21.4c6.01 0.169 12 0.859 17.9 1.75 11.2 1.74 22.3 4.66 33 8.44 5.55 1.97 11 4.18 16.4 6.64 5.64 2.72 11.3 5.51 16.6 8.84 9.96 6.03 19.4 13 27.8 21.1 9.84 9.48 18.2 20.5 24.4 32.7 2.06 3.98 3.92 8.06 5.43 12.3 1.9 5.17 3.5 10.4 4.64 15.8 1.18 5.53 1.98 11.1 2.43 16.8-0.172 0.984-1.45 0.545-2.15 0.673-1.41 0.0546-2.84 0.123-4.24-0.107-0.842-0.589-0.576-1.73-0.866-2.58-1.86-9.83-4.76-19.5-8.72-28.7-4.3-9.82-9.75-19.2-16.4-27.6-10.7-13.6-24.2-25-39.2-33.7-8.03-4.69-16.5-8.6-25.2-11.8-16.7-6.18-34.4-9.77-52.2-10.3-10.2-0.223-20.4 0.48-30.5 1.9-13.8 1.97-27.4 5.54-40.4 10.6-6.37 2.39-12.5 5.34-18.5 8.58-16.7 9.03-31.7 21.2-43.4 36.1-5.03 6.32-9.46 13.1-13.2 20.3-3.73 7.02-6.84 14.4-9.27 21.9-1.59 4.92-2.94 9.92-4.05 15-0.725 0.786-1.86 0.227-2.77 0.399-2.23 0.0531-4.47 2e-3 -6.7 0.0213 1e-3 -0.128 2e-3 -0.257 4e-3 -0.385 0.441-2.71 1.13-5.37 1.74-8.04 2.1-8.45 4.8-16.8 8.17-24.8 1.31-3.11 2.71-6.18 4.29-9.17 3.88-7.54 8.3-14.8 13.5-21.6 10.9-14.3 24.7-26.5 40.2-35.7 8.16-4.99 16.8-9.12 25.8-12.6 18.1-6.92 37.2-11 56.6-12.4 6.37-0.434 12.8-0.633 19.2-0.472zm-7.43 19c2.23-0.0672 4.46-0.0574 6.69 0.0413 8.88 0.356 17.7 1.78 26.3 3.89 5.84 1.56 11.7 3.26 17.3 5.31 6.73 2.4 13.3 5.24 19.6 8.5 15.6 7.93 30.1 18.4 41.8 31.6 8.46 9.5 15.4 20.4 19.8 32.4 2.64 7.13 4.47 14.6 5.29 22.1-0.0234 0.707 0.479 1.82-0.393 2.17-0.814 0.153-1.65-0.0915-2.48 0.0416-1.83 0.0193-3.66 0.0279-5.49-0.0962-0.503-1.01-0.473-2.17-0.781-3.24-2.41-12.1-6.74-23.9-13-34.6-3.38-5.82-7.29-11.3-11.7-16.4-11.5-13.1-26.1-23.4-42-30.7-12-5.46-24.7-9.26-37.7-11.4-4.45-0.693-8.92-1.25-13.4-1.49-3.5-0.137-7-0.105-10.5-0.0924-4.38 0.0536-8.75 0.432-13.1 1.08-15.7 2.24-31 7.01-45.2 14-16.6 8.17-31.8 19.5-43.7 33.8-6.15 7.36-11.4 15.5-15.6 24.1-3.94 7.94-7.03 16.3-9.25 24.9-3.84-0.112-7.69 0.0985-11.5 0.0897-0.0898-8e-3 -0.179-0.0193-0.269-0.0331 0.0763-2.4 0.642-4.74 1.05-7.1 2.87-14.1 9.14-27.5 18-38.9 6.9-9.08 15.2-17 24.2-24 12.2-9.34 25.8-16.8 40-22.7 8.64-3.55 17.5-6.46 26.6-8.79 3.11-0.892 6.3-1.5 9.47-2.14 6.56-1.27 13.2-2.16 19.9-2.36zm3.33 17.6c2.19-1e-3 4.37 0.0624 6.56 0.193 12.5 0.745 24.8 3.44 36.6 7.72 16.4 6 31.6 15.4 43.7 28 7.21 7.51 13.3 16.2 17.6 25.6 2.4 5.15 4.26 10.5 5.74 16 0.83 3.22 1.52 6.48 2 9.78 0.0214 0.497 0.375 1.31-0.446 1.09l-115-0.0339 12-24.4 29.2-4.37-21.2-20.5 4.87-29.2-26.2 13.8-26.3-13.7 4.99 29.2-21 20.8 29.3 4.11 12.2 24.3-113-0.0334c-0.792-0.641 0.14-1.55 0.228-2.3 0.697-2.33 1.57-4.61 2.43-6.88 4.23-11.1 10.1-21.5 17.3-30.9 3.74-4.77 7.89-9.21 12.2-13.4 11.9-11.4 25-19.6 41.6-26.1 14.3-5.5 29.5-8.68 44.8-8.69z" fill="#fff"/>
</svg>
