<?xml version="1.0" encoding="UTF-8"?>
<!-- Created with Inkscape (http://www.inkscape.org/) -->
<svg width="1200" height="630" version="1.1" viewBox="0 0 317.5 166.7" xml:space="preserve" xmlns="http://www.w3.org/2000/svg"><g stroke-width="0"><path d="m0 7.629e-6h317.5v166.7h-317.5z" fill="#212121" style="paint-order:markers stroke fill"/><path d="m0 0h317.5v125h-317.5z" fill="#8957a0" style="paint-order:markers stroke fill"/><path d="m0 0h317.5v83.34h-317.5z" fill="#fff" style="paint-order:markers stroke fill"/><path d="m0 0h317.5v41.67h-317.5z" fill="#ffe261" style="paint-order:markers stroke fill"/></g><g transform="matrix(.2646 0 0 .2646 32.82 65.53)"><path d="m288.5-11.44c-16.37-0.4067-31.41 7.067-40.09 20.54-0.2459-0.03461-0.5786-0.06297-0.8164-0.09961-4.57-6.152-11.71-11.24-20.2-11.81l-0.0156-0.00195h-0.0176c-7.601-0.4936-15.8-1.172-24.58-0.6016l-0.0137 0.00195h-0.0137c-5.38 0.3621-11.9 0.6551-18.79 3.879-3.955 1.85-7.649 5.192-10.55 9.365-8.958-1.389-17.85-1.192-26.5 0.5273-6.987-11.87-18.8-20.15-33.24-21.36h-6e-3c-9.279-0.7684-18.54 0.221-26.9 4.346-6.684 3.3-12.38 8.711-16.7 15.56-6.512-0.2245-12.76 0.7923-18.56 2.543l-0.09961 0.0293-0.09766 0.03125c-0.6892 0.2215-2.425 0.4207-4.504 0.2773l0.1367 0.01172c-11.44-0.9272-23.69-1.484-36.49 1.451l-2e-3 2e-3h-2e-3c-11.59 2.662-21.51 12.61-21.69 25.31v0.02539l-2e-3 0.02539c-0.2011 20.41-0.09959 40.63-0.1992 60.76v0.209c0.1765 13.22 10.31 23.7 22.53 26.01h4e-3c12.1 2.284 24.3 2.046 36.18-0.4434l0.2168-0.0469 0.2129-0.0527c0.473-0.1182 0.7867-0.0656 0.7207-0.0527 12.75 2.837 25.09 2.227 36.71 0.582l0.2539-0.0352 0.25-0.0488c1.968-0.3691 2.625-0.2334 1.367-0.3906l0.1914 0.0234 0.1934 0.0176c3.01 0.2736 7.559 1.597 13.86 1.742 9.802 0.2921 21.14 0.0211 32.35-4.971 14.43 6.631 30.07 7.497 44.95 3.723h6e-3l4e-3 -2e-3c3.494-0.8893 5.829-1.652 6.816-1.785s0.1741-0.2568 0.582-2e-3l-0.2832-0.1836c5.19 3.46 7.157 2.125 7.557 2.125 9.1 0 18.06 5.3e-4 27.07 0.0996h0.1269c2.3 0 3.916 0.1141 4.359 0.2148l-0.0723-0.0156c10.88 2.546 23.22 2.979 35-2.445 0.2177-0.1 0.2623-0.1052 0.4531-0.1875 4.01 2.625 6.524 2.079 7.318 2.201l-0.2988-0.0508c11.94 2.161 23.89 1.922 35.61-0.4434l-0.1562 0.0312c0.7531-0.1412 0.8946-0.0642 0.3203-0.1816 12.89 2.994 25.67 2.591 37.9 0.2773l-0.1387 0.0254c1.817-0.3206 2.181-0.1053 0.8594-0.3906 14.49 3.17 28.74 2.462 42.41-0.2793 10.68 3.994 22.04 4.083 32.61 0.8398l-0.1289 0.0391c-0.6345 0.1866-0.0592 0.0357 0.3828 0.1094l-0.1074-0.0176c11.14 1.966 23.01 2.622 35.19 0.0215l-0.1465 0.0293c1.856-0.3712 2.843-0.1371 1.49-0.4219l0.0234 4e-3c11.08 2.309 22.09 2.277 32.76 0.7246 4.711-0.6503 10.38-1.51 16.18-4.807 0.7469-0.4246 1.444-1.026 2.166-1.545 3.976 3.263 8.587 5.536 13.38 6.316 11.72 1.933 23.53 1.583 35.07-0.9062l-0.3047 0.0625c-0.2988 0.056 0.0677-0.0144 0.6758 0.0996l0.0352 8e-3 0.0332 6e-3c15.14 2.744 31.32 3.172 47.28-2.592 19.57 7.546 40.35 7.34 59.66-1.842 21.69 10.52 44.78 9.16 65.63-1.084 18.92 10.48 40.11 10.73 59.48 2.691 3.876 2.316 7.597 3.125 10.71 3.586l0.1172 0.0176 0.1172 0.0156c3.196 0.4068 5.964 0.5057 8.941 0.7031 1.122 3.136 2.669 6.084 4.846 8.736 4.225 5.146 10.61 8.274 16.91 9.301 2e-3 3.2e-4 4e-3 2e-3 6e-3 2e-3 13.49 2.226 27.47 1.933 41.19-2.25h2e-3l2e-3 -2e-3c3.102-0.9479 6.001-2.318 8.932-4.367 2.931-2.05 6.391-4.519 8.127-10.5l-0.0293 0.0977c0.4889-1.63 0.4216-1.102 0.3438-1.049-0.0778 0.0531 0.6985-0.3878 2.945-0.6777l1.104-0.1406 1.055-0.3516c0.3-0.1 0.7339-0.1385 2.301-0.9219l0.2598-0.1309 0.2539-0.1426c1.46-0.8253 1.943-0.9351 2.18-1.027 4.617 3.343 7.241 2.463 6.76 2.395l-0.6465-0.1113c13.23 2.669 26.37 1.926 38.94-0.9648l0.0273-6e-3 0.0274-0.01c12.46-2.932 22.54-14.13 22.54-27.06 0.0999-24.3 0.0999-48.5 0-72.7 0-13.75-11.05-26.25-25.02-27.51-8.062-0.751-16.01-0.8461-23.77-0.7461-5.396 0.00406-10.11 1.057-14.08 2.023l-0.0156 0.00391-0.0137 0.00195c-6.404 1.576-11.74 5.72-15.6 10.88-7.47-0.9606-15.2-0.4848-22.72 2.299 0.3384-0.1247-0.2451 0.06881-1.465 0.0078l0.291 0.01758c-10.81-0.8162-22.65-1.495-35.12 1.355l-0.0293 0.0078-0.0293 0.0059c-6.386 1.495-12.55 4.615-16.75 9.908-1.517 1.911-2.597 4.037-3.49 6.23-5.069-7.17-12.15-12.83-20.88-16.03-18.05-6.742-37.4-6.144-54.83 2.217l-0.016 0.0078c-3.449 1.661-0.552 1.657-4.701-0.2695l-0.0234-0.0098-0.0234-0.01172c-20.24-9.291-42.42-8.674-62.2 1.627-13.29-7.436-27.86-8.756-41.42-7.523h-0.0176l-0.0156 0.00195c-8.591 0.8054-16.86 3.229-24.46 7.225-12.54-8.119-27.59-8.924-40.98-5.016l-0.0801 0.02344-0.0801 0.02539c-0.488 0.1502-2.502 0.3926-5.029 0.3926h-0.1211c-9.32 0.09915-18.58 0.09961-27.98 0.09961-2.224 0-3.047-0.5754-0.9062 0.3613l0.2949 0.1328c-9.746-4.595-20.56-4.395-29.79-1.143l-0.2266 0.07813-0.2227 0.08984c-0.0991 0.03962-1.081 0.2466-2.041 0.2676-4.867-0.1933-10.64-0.9024-17.21-0.7852-6.659 0.08482-15.11 0.3213-23.68 3.93-4.05-1.539-9.185-4.134-16.55-5.209h-2e-3c-15.89-2.34-32.18-1.14-47.59 5.357-13.1-7.709-28.45-7.697-41.8-3.055l0.4336-0.1426c-0.5318 0.1595-0.4801 0.09296-0.7363 0.1211-5.335-0.3416-10.92-0.7684-16.53-1.189-7.489-13.39-21.43-21.89-37.54-22.31h-8e-3zm-40.79 20.59c0.0814 0.04641 0.2585 0.3782 0.3438 0.4531-2e-3 0.00247-2e-3 0.00535-4e-3 0.00781-0.1097-0.1558-0.2266-0.3065-0.3398-0.4609zm198.3 7.125c-0.6415 0.3324-1.282 0.4963-1.922 0.875l0.1484-0.08789c0.6992-0.3996 1.2-0.548 1.773-0.7871zm277.2 102c0.0365 0.0223 0.0748 0.0364 0.1113 0.0586 6e-3 3e-3 -0.0431-0.0165-0.0352-0.0117zm59.83 2.637c0.1085 0.0826 0.2139 0.1253 0.3223 0.2051-3e-3 -2e-3 -0.065-0.0146-0.0664-0.0156zm-179.5 0.5781-0.3477 0.1367c-0.0802 0.0301-0.0785 0.0145-0.1543 0.043 0.167-0.0674 0.335-0.1108 0.502-0.1797zm291.3 1.254c0.0108 9e-3 0.0185 9e-3 0.0293 0.0176 2e-3 1e-3 -8e-3 -1e-3 -6e-3 0zm-510.3 1.779-0.1855 0.0371c-9e-3 2e-3 -0.0115-6e-3 -0.0195-4e-3 0.0677-0.0138 0.1374-0.0194 0.2051-0.0332z" color="#000000" fill="#fff" style="-inkscape-stroke:none;paint-order:stroke markers fill"/><path d="m504.7 100.4c-3.4 11-11.6 13-20.3 14.2-9.6 1.4-19.2 1.4-28.8-0.6-1.9-0.4-4.1 0-6.1 0.4-10.3 2.2-20.6 1.7-30.8-0.1-1.8-0.3-3.8-0.3-5.5 0.2-8.8 2.7-17.3 2.6-25.9-0.8-1.5-0.6-3.5-0.7-5.1-0.4-12.7 2.6-25.4 3.2-38.2 0.4-1.7-0.4-3.6 0-5.3 0.3-11.1 2.1-22.2 2.4-33.3-0.2-1.5-0.4-3.3-0.2-4.9 0.1-10.4 2.1-20.8 2.3-31.3 0.4-1.3-0.2-3-0.4-3.9-1.2-3.6-3.2-6.7-1.6-10.4 0.1-8.9 4.1-18.2 3.9-27.6 1.7-2.2-0.5-4.6-0.5-6.9-0.5-9.1-0.1-18.1-0.1-27.2-0.1-0.4 0-0.9 0-1.2-0.2-5.6-3.5-10.8-1-16.3 0.4-13.4 3.4-26.6 2.5-39.1-3.8-2.2-1.1-3.7-1.1-6 0.1-9.1 4.6-19.1 4.9-29.1 4.6-4.4-0.1-8.7-1.3-13.1-1.7-1.6-0.2-3.3 0.2-4.9 0.5-11.3 1.6-22.5 2.1-33.7-0.6-1.5-0.4-3.3-0.1-4.9 0.3-10.5 2.2-21.1 2.4-31.7 0.4-7.4-1.4-13.1-7.4-13.2-14.9 0.1-20.2 0-40.4 0.2-60.7 0.1-7 5.4-12.6 12.8-14.3 10.9-2.5 21.9-2.1 33-1.2 2.9 0.2 6 0.1 8.8-0.8 6.3-1.9 12.6-2.7 19.2-1.7 1.1 0.2 3-0.7 3.4-1.6 7.1-15.1 19.6-20 35.3-18.7 14.4 1.2 23.4 9.3 27.8 23.4 12.8-4.3 25.8-4.9 39.3-1 2.8-12.9 13.3-14.1 23.7-14.8 7.7-0.5 15.4 0.1 23.1 0.6 5.9 0.4 10.1 3.7 13.1 8.9 0.7 1.2 2.4 2.2 3.8 2.5 3.6 0.7 7.3 1 11.3 1.4 5.8-15 17.3-21.8 33.4-21.4 15.3 0.4 25.5 7.8 30.3 21.8 8.6 0.6 16.8 1.3 25 1.8 1 0.1 2.1-0.4 3.1-0.7 13.2-4.6 25.8-4.1 37 5.4 14.9-7.9 30.7-9.6 47-7.2 5.5 0.8 10.6 3.5 16 5.3 1.1 0.4 2.6 1 3.3 0.6 7.1-4.2 15-4.4 22.8-4.5 5.6-0.1 11.3 0.6 16.9 0.8 2.1 0 4.4-0.3 6.4-1.1 7.1-2.5 14.1-2.6 21.1 0.7 1.6 0.7 3.7 0.6 5.5 0.6 9.4 0 18.7 0 28.1-0.1 2.8 0 5.8-0.1 8.4-0.9 13.7-4 26.2-2.8 37 7.9 7.9-5.6 16.7-8.8 26.3-9.7 13.2-1.2 26 0.2 37.4 7.6 2.3 1.5 3.7 1.2 5.8-0.1 17.7-10.2 36.3-11 54.6-2.6 5.6 2.6 9.1 2.8 14.5 0.2 14.8-7.1 30.4-7.6 45.9-1.8 13.1 4.8 20.1 14.1 21.7 28.3h12.2v-10.7c0.1-9.6 4.4-15.1 13.8-17.3 10.5-2.4 21.1-1.9 31.7-1.1 2 0.1 4.1 0 6-0.7 8.1-3 16.2-2.7 24.7-0.2 1.8-6.6 5.9-11 12.4-12.6 3.7-0.9 7.6-1.7 11.4-1.7 7.6-0.1 15.2 0 22.7 0.7 8.9 0.8 14.6 7.3 14.6 16.1 0.1 24.2 0.1 48.4 0 72.7 0 7.9-5.2 13.9-13.7 15.9-11.3 2.6-22.7 3.2-34.1 0.9-0.7-0.1-1.5-0.1-2-0.5-4.9-3.9-9.6-2.1-14.2 0.5-0.2 0.1-0.5 0.2-0.8 0.3-6.2 0.8-10.7 2.8-12.8 9.8-0.9 3.1-5.8 6-9.4 7.1-11.8 3.6-23.9 3.9-36 1.9-8.6-1.4-13-6.8-14.4-17.5-5.6-0.4-11.2-0.6-16.7-1.3-2.7-0.4-5.6-1.2-7.7-2.8-3.2-2.3-5.7-1.5-8.9-0.1-17.7 7.4-35.2 7-51.9-3.2-2.5-1.5-4-1.4-6.5 0-20 10.5-40.1 11.7-60.4 0.6-1.1-0.6-2.9-0.7-4-0.1-18.4 9.9-37.1 10.1-56.1 2-0.9-0.4-2.2-0.4-3-0.1-14.3 5.9-29 5.7-43.9 3-1.6-0.3-3.3-0.4-4.9-0.1-10.2 2.2-20.5 2.5-30.8 0.8-7.4-1.2-12.3-5.3-14.9-14.2" color="#000000" fill="#2d2d2b" style="-inkscape-stroke:none;paint-order:stroke markers fill"/><path id="XMLID_9_" class="st1" d="m922.8 23.92c-2.8 0-5.5 0.1-8.2 0.4-2.6 0.3-5.3 0.7-7.9 1.3-0.1 7-0.2 14.1-0.3 21.4s-0.1 14.2-0.1 20.8 0.1 12.6 0.2 18.1 0.2 9.8 0.4 13.1c4.9 1 9.9 1.4 14.9 1.1 5.1-0.3 9.8-1 14.2-2.2-0.1-3.2-0.3-7.4-0.4-12.8s-0.2-11.4-0.2-18 0-13.6 0.1-20.9 0.2-14.4 0.4-21.3c-4.4-0.7-8.8-1-13.1-1m-63 64c-0.1-5.1-0.2-10.4-0.2-15.9s0-11 0.1-16.4c0.6-0.7 1.3-1.3 2.2-1.8 0.8-0.5 1.7-0.7 2.6-0.7 1.7 0 3.4 1.4 4.9 4.2s2.3 7.2 2.3 13.3c0 6.3-0.9 10.9-2.6 13.7-1.7 2.9-3.9 4.3-6.4 4.3-1-0.1-1.9-0.3-2.9-0.7m12.1-50.1c-2.1 0.8-3.9 1.9-5.6 3.3-1.6 1.4-3 3-4.2 4.9-1.1 1.8-1.9 3.8-2.4 5.9 0.1-2.1 0.1-4.2 0.1-6.3 0-2 0-4 0.1-6-5.1-0.6-10.1-0.9-14.9-0.9-4.9 0-9.6 0.6-14.3 1.7-0.1 7.3-0.2 14.8-0.3 22.5 0 7.7 0 15.1 0.1 22 0.1 7 0.2 13.3 0.3 19.1 0.1 5.7 0.2 10.3 0.3 13.8 4.9 1 9.9 1.4 15 1.1s10.2-1.1 15.1-2.4c-0.3-2.4-0.6-5.5-0.8-9.4-0.2-3.8-0.3-8.1-0.5-12.9 2.2 2.3 4.5 4 6.9 5 2.4 1.1 5.1 1.6 8.1 1.6 3.6 0 6.9-0.8 10.1-2.3s5.9-3.7 8.2-6.5 4.1-6.3 5.5-10.4c1.3-4.1 2-8.7 2-13.9 0-4.7-0.6-9-1.7-12.8-1.1-3.9-2.6-7.2-4.6-9.9s-4.3-4.9-7-6.4-5.6-2.3-8.8-2.3c-2.4 0.3-4.6 0.7-6.7 1.5m-77.3 58c2.8 2.9 7 4.3 12.6 4.3 5.4 0 9.6-1.4 12.6-4.2s4.5-6.7 4.5-11.6c0-4.6-1.4-8.4-4.2-11.2s-7-4.3-12.6-4.3c-5.4 0-9.6 1.4-12.6 4.3s-4.5 6.7-4.5 11.5c0 4.6 1.4 8.4 4.2 11.2m-36.9-14c-2.6-4.1-4-10.8-4-20 0-6.4 0.6-11 1.8-13.6s2.7-4 4.6-4c1 0 1.9 0.3 2.8 1 0.9 0.6 1.6 1.7 2.3 3.2s1.2 3.5 1.6 5.9 0.6 5.4 0.7 9c2.4 0.3 4.7 0.2 7-0.3 2.2-0.5 4.2-1.2 5.9-2.2s3.1-2.2 4.1-3.7 1.6-3.2 1.6-5-0.6-3.6-1.7-5.5c-1.1-1.8-2.7-3.5-4.9-5-2.1-1.5-4.8-2.7-8-3.6s-6.9-1.4-11.1-1.4c-5.5 0-10.5 0.7-14.9 2.2-4.4 1.4-8.2 3.5-11.3 6.2s-5.5 6.1-7.1 10c-1.7 4-2.5 8.4-2.5 13.5 0 4.8 0.8 9.1 2.3 13.1s3.7 7.4 6.6 10.3 6.4 5.1 10.6 6.7 8.9 2.4 14.2 2.4c3.4 0 6.6-0.4 9.5-1.1s5.6-1.6 7.9-2.8c2.4-1.2 4.5-2.5 6.4-4.1s3.5-3.2 4.7-4.9c-0.3-1.1-0.7-2.1-1.4-3s-1.4-1.7-2.3-2.2c-2.1 1.6-4.5 2.9-7 3.8s-5 1.4-7.4 1.4c-4.7-0.1-8.4-2.2-11-6.3m-84.7-3.8c-1.2 0.8-2.3 1.8-3.2 2.9s-1.6 2.3-2.2 3.5-0.9 2.5-0.9 3.9c0 1.9 0.6 3.7 1.9 5.3s3 2.9 5.2 4 4.7 2 7.7 2.6c2.9 0.6 6.1 0.9 9.6 0.9 4.2 0 8.2-0.4 12-1.2s7.1-1.9 10-3.5 5.2-3.5 6.8-5.9c1.7-2.3 2.5-5.1 2.5-8.2 0-2.5-0.7-5-2.2-7.4-1.5-2.5-3.3-4.9-5.6-7.3-2.2-2.4-4.7-4.7-7.2-6.9-2.6-2.2-5-4.3-7.2-6.2s-4.1-3.7-5.6-5.4c-1.5-1.6-2.2-3-2.2-4.2 0-0.5 0.2-1 0.5-1.4s0.9-0.6 1.6-0.6c0.9 0 2 0.4 3.3 1.1s2.6 1.8 4 3.2 2.7 3.2 4.1 5.2c1.3 2.1 2.5 4.5 3.6 7.1 1.1-0.3 2.3-0.9 3.4-1.7s2.2-1.7 3.1-2.7 1.7-2.1 2.3-3.3 0.9-2.4 0.9-3.7-0.4-2.7-1.2-4.1-2.1-2.6-3.9-3.7-4.2-2-7.1-2.7c-3-0.7-6.6-1-10.9-1-8.9 0-15.8 1.6-20.8 4.7-4.9 3.2-7.4 7.3-7.4 12.6 0 2.8 0.7 5.5 2.1 8s3.1 5 5.1 7.3 4.3 4.5 6.6 6.6c2.4 2.1 4.6 4 6.6 5.9 2 1.8 3.8 3.6 5.1 5.2 1.4 1.6 2.1 3.1 2.1 4.5 0 1.8-1 2.7-2.9 2.7-0.9 0-1.9-0.3-3-0.9s-2.4-1.6-3.8-3-2.8-3.3-4.3-5.6-3.1-5.2-4.7-8.6c-1.3 0.5-2.6 1.1-3.8 2m-45.5 11c-0.9-2.3-1.7-5.1-2.3-8.5s-1-7-1.3-10.9-0.4-7.4-0.4-10.6c0-9.2 1.3-13.8 4-13.8 2.1 0 3.9 2.7 5.3 8.2 1.4 5.4 2.1 13.8 2.1 25 0 9.4-1.3 14.1-4 14.1-1.3-0.1-2.5-1.2-3.4-3.5m-24 3.6c5.8 5.6 14.3 8.4 25.3 8.4 6.1 0 11.4-0.9 15.8-2.6s8.1-4 10.9-7c2.8-2.9 5-6.4 6.3-10.3 1.4-3.9 2.1-8.1 2.1-12.5 0-10.1-2.9-18-8.7-23.6s-14.3-8.4-25.3-8.4c-6.1 0-11.4 0.9-15.8 2.6s-8.1 4-11 7-5 6.4-6.3 10.3-2 8.1-2 12.5c-0.1 10.1 2.8 18 8.7 23.6m-18.7-50.5c-2.8-3.7-6.9-5.5-12.3-5.5-2.4 0-4.8 0.4-7.1 1.1s-4.5 1.7-6.5 3-3.8 2.9-5.3 4.7-2.8 3.8-3.7 6c0-2.1 0-4.1 0.1-6 0-1.9 0.1-3.9 0.2-5.7-5.1-0.6-10.1-0.9-14.9-0.9-4.9 0-9.6 0.6-14.3 1.7-0.1 5.6-0.2 11.2-0.3 17v16.6c0 5.3 0.1 10.1 0.2 14.4s0.2 7.8 0.4 10.4c4.9 1 9.9 1.4 14.9 1.1 5.1-0.3 9.8-1 14.2-2.2-0.1-1.8-0.2-4.2-0.3-7.1s-0.2-6.2-0.2-9.9c0-3.6-0.1-7.5-0.1-11.6v-12.3c0.6-0.9 1.4-1.7 2.3-2.3s1.9-0.9 2.8-0.9c1.5 0 2.7 0.6 3.6 1.8s1.4 3.1 1.4 5.9v7.9c0 3.2 0 6.5 0.1 9.9 0 3.5 0.1 6.9 0.2 10.4s0.1 6.6 0.2 9.3c4.9 0.9 10 1.3 15.4 1.1s10.4-1 15-2.2c-0.4-2.1-0.7-4.9-0.9-8.2-0.2-3.4-0.4-6.9-0.5-10.5-0.1-3.7-0.2-7.2-0.2-10.7s-0.1-6.5-0.1-9c-0.1-7.9-1.5-13.6-4.3-17.3m-89.3 0.8c-3.2 4.2-5.5 10.5-7.1 18.9 0-7.1 0.1-14.5 0.3-22.1-5.1-0.6-10.1-0.9-14.9-0.9-4.9 0-9.6 0.6-14.3 1.7-0.1 5.6-0.2 11.2-0.3 17v16.6c0 5.3 0.1 10.1 0.2 14.4s0.2 7.8 0.4 10.4c4.9 1 9.9 1.4 14.9 1.1 5.1-0.3 9.8-1 14.2-2.2-0.2-3-0.3-7.1-0.4-12.4-0.1-5.2-0.1-11.1-0.1-17.7 1.6-1 3.5-1.8 5.5-2.3 2.1-0.5 4.2-0.8 6.3-0.9s4.2 0 6.2 0.4 3.8 1 5.2 1.8c1.4-3.1 2.4-6 3.1-8.7 0.6-2.7 1-5.3 1-7.6 0-4.2-0.9-7.6-2.6-10.1s-4-3.7-6.8-3.7c-4 0-7.6 2.1-10.8 6.3m-83.4 40.4c-0.8-1-1.2-2.3-1.2-3.9 0-1.9 0.6-3.4 1.8-4.6s2.8-1.8 4.8-1.8c0.6 0 1.2 0.1 1.9 0.2 0.6 0.1 1.3 0.3 1.9 0.5v5.4c-0.3 1.9-1.1 3.4-2.2 4.3s-2.3 1.4-3.6 1.4c-1.5 0.1-2.6-0.4-3.4-1.5m30.7-39.5c-5.1-4.8-12.7-7.2-22.7-7.2-5.6 0-10.5 0.4-14.6 1.2s-7.5 1.8-10.2 3.1-4.7 2.7-6 4.3-2 3.2-2 4.8c0 1.2 0.4 2.4 1.2 3.7s2 2.4 3.7 3.5 3.8 1.9 6.3 2.6 5.6 1 9.1 1c0.1-5 0.9-8.9 2.5-11.7s3.4-4.2 5.3-4.2c0.7 0 1.5 0.3 2.2 0.9s1.3 1.6 1.9 3.2c0.5 1.5 1 3.7 1.3 6.4s0.5 6.2 0.5 10.5v1.8c-1.9-0.7-4-1.3-6.3-1.8-2.3-0.4-4.8-0.7-7.6-0.7-3.5 0-6.7 0.4-9.5 1.3-2.9 0.9-5.3 2.1-7.4 3.7s-3.7 3.5-4.8 5.8c-1.1 2.2-1.7 4.8-1.7 7.6 0 2.6 0.5 5 1.4 7.1s2.1 3.9 3.7 5.4 3.4 2.7 5.5 3.5 4.4 1.3 6.9 1.3c1.9 0 3.9-0.3 5.9-0.9s3.9-1.4 5.7-2.5 3.4-2.5 4.9-4.2c1.4-1.7 2.6-3.7 3.4-5.9 0.1 2.8 0.2 5 0.3 6.6 0.1 1.7 0.2 3.3 0.4 4.8 2.4 0.5 4.9 0.9 7.5 1.2 2.6 0.2 5.2 0.3 7.9 0.2 2.6-0.1 5.2-0.4 7.7-0.8s4.8-1.1 7-1.9c-0.7-2.3-1.1-6-1.4-11-0.2-5-0.4-11.7-0.4-20.3 0-10.1-2.6-17.7-7.6-22.4m-68.8-1.7c-2.9-3.7-6.9-5.5-12.3-5.5-2.4 0-4.8 0.4-7.1 1.1s-4.5 1.7-6.5 3-3.8 2.9-5.3 4.7-2.8 3.8-3.7 6c0-2.1 0-4.1 0.1-6 0-1.9 0.1-3.9 0.2-5.7-5.1-0.6-10.1-0.9-14.9-0.9-4.9 0-9.6 0.6-14.3 1.7-0.1 5.6-0.2 11.2-0.3 17v16.6c0 5.3 0.1 10.1 0.2 14.4s0.2 7.8 0.4 10.4c4.9 1 9.9 1.4 14.9 1.1 5.1-0.3 9.8-1 14.2-2.2-0.1-1.8-0.2-4.2-0.3-7.1s-0.2-6.2-0.2-9.9c0-3.6-0.1-7.5-0.1-11.6v-12.3c0.6-0.9 1.4-1.7 2.3-2.3s1.9-0.9 2.8-0.9c1.5 0 2.7 0.6 3.6 1.8s1.4 3.1 1.4 5.9v7.9c0 3.2 0 6.5 0.1 9.9 0 3.5 0.1 6.9 0.2 10.4s0.1 6.6 0.2 9.3c4.9 0.9 10 1.3 15.4 1.1s10.4-1 15-2.2c-0.4-2.1-0.7-4.9-0.9-8.2-0.2-3.4-0.4-6.9-0.5-10.5-0.1-3.7-0.2-7.2-0.2-10.7s-0.1-6.5-0.1-9c-0.1-7.9-1.5-13.6-4.3-17.3m-88.1 7.8c-4.9 0-9.6 0.6-14.3 1.7-0.1 4.8-0.1 9.5-0.1 14.2s0 9.2 0.1 13.3c0.1 4.2 0.2 7.9 0.3 11.4 0.1 3.4 0.2 6.2 0.3 8.4 4.9 1 9.9 1.4 14.9 1.1 5.1-0.3 9.8-1 14.2-2.2-0.1-2.1-0.2-4.8-0.3-8.3s-0.1-7.3-0.2-11.5c0-4.2-0.1-8.7-0.1-13.4s0-9.3 0.1-13.9c-5.1-0.5-10-0.8-14.9-0.8m-12-6.5c2.8 2.9 7 4.3 12.6 4.3 5.4 0 9.6-1.4 12.6-4.2s4.5-6.7 4.5-11.6c0-4.6-1.4-8.4-4.2-11.2s-7-4.3-12.6-4.3c-5.4 0-9.6 1.4-12.6 4.3s-4.5 6.7-4.5 11.5c0.1 4.6 1.5 8.4 4.2 11.2m-49.9 45c0.3-2.5 0.6-5.7 0.7-9.6 0.1-3.8 0.2-8.6 0.2-14.3v-8.4c0.6-0.7 1.3-1.3 2.2-1.8 0.9-0.4 1.7-0.7 2.5-0.7 1.7 0 3.4 1.4 4.9 4.2s2.3 7.2 2.3 13.3c0 6.3-0.9 10.9-2.6 13.7-1.7 2.9-3.9 4.3-6.4 4.3-1.3 0.1-2.5-0.2-3.8-0.7m13-50.6c-2 0.8-3.9 1.9-5.5 3.3s-3 3-4.2 4.8c-1.1 1.8-1.9 3.8-2.4 5.9 0-4.5 0-9 0.1-13.5s0.2-9 0.3-13.4c-5.1-0.7-10.1-1-14.9-0.9-4.9 0.1-9.6 0.6-14.3 1.7-0.1 7-0.1 14.1-0.2 21.4s-0.1 14.2-0.2 20.8v18.1c0 5.5 0 9.8-0.1 13.1 4.2 0.7 8.4 1.1 12.7 1.1 4.2 0 8.2-0.4 12.1-1.2 0.5-0.5 1-1.1 1.4-1.7s0.7-1.3 1.1-2.2c5 4 10.6 5.9 16.9 5.9 3.7 0 7.1-0.8 10.3-2.3s6-3.7 8.3-6.5 4.2-6.3 5.5-10.4 2-8.7 2-13.9c0-4.7-0.6-9-1.7-12.8-1.1-3.9-2.6-7.2-4.6-9.9s-4.3-4.9-7-6.4-5.6-2.3-8.8-2.3c-2.5 0.1-4.7 0.5-6.8 1.3m-73.5 7c0.6 0.3 1.1 1.1 1.5 2.2s0.7 2.7 0.8 4.8 0 4.9-0.3 8.5h-8.1c0-3.2 0.1-5.9 0.3-7.9 0.2-2.1 0.5-3.7 0.9-4.9s0.8-2 1.4-2.5c0.5-0.5 1.1-0.7 1.8-0.7 0.5 0 1.1 0.1 1.7 0.5m16.3 41.8c-2.5 0.9-5 1.4-7.4 1.4-9 0-13.9-7-14.9-20.9h32.1c1.4-10.1-0.3-17.7-5.2-22.8s-12.3-7.7-22.3-7.7c-5.7 0-10.7 0.8-14.9 2.5-4.2 1.6-7.7 3.9-10.6 6.7-2.8 2.9-4.9 6.2-6.3 10.1s-2.1 8.1-2.1 12.6c0 4.8 0.8 9.1 2.3 13.1s3.7 7.4 6.6 10.3 6.4 5.1 10.6 6.7 8.9 2.4 14.2 2.4c3.4 0 6.6-0.4 9.5-1.1s5.6-1.6 7.9-2.8c2.4-1.2 4.5-2.5 6.4-4.1s3.5-3.2 4.7-4.9c-0.3-1.1-0.7-2.1-1.4-3s-1.4-1.7-2.3-2.2c-2.1 1.5-4.4 2.8-6.9 3.7m-72.2-36.7c-4.9 0-9.6 0.6-14.3 1.7-0.1 4.8-0.1 9.5-0.1 14.2s0 9.2 0.1 13.3c0.1 4.2 0.2 7.9 0.3 11.4 0.1 3.4 0.2 6.2 0.3 8.4 4.9 1 9.9 1.4 14.9 1.1 5.1-0.3 9.8-1 14.2-2.2-0.1-2.1-0.2-4.8-0.3-8.3s-0.1-7.3-0.2-11.5c0-4.2-0.1-8.7-0.1-13.4s0-9.3 0.1-13.9c-5.1-0.5-10-0.8-14.9-0.8m-12-6.5c2.8 2.9 7 4.3 12.6 4.3 5.4 0 9.6-1.4 12.6-4.2s4.5-6.7 4.5-11.6c0-4.6-1.4-8.4-4.2-11.2s-7-4.3-12.6-4.3c-5.4 0-9.6 1.4-12.6 4.3s-4.5 6.7-4.5 11.5c0.1 4.6 1.4 8.4 4.2 11.2m-15.1-1.3c-2.8-3.7-6.9-5.5-12.3-5.5-2.4 0-4.8 0.4-7.1 1.1s-4.5 1.7-6.5 3-3.8 2.9-5.3 4.7-2.8 3.8-3.7 6c0-2.1 0-4.1 0.1-6 0-1.9 0.1-3.9 0.2-5.7-5.1-0.6-10.1-0.9-14.9-0.9-4.9 0-9.6 0.6-14.3 1.7-0.1 5.6-0.2 11.2-0.3 17v16.6c0 5.3 0.1 10.1 0.2 14.4s0.2 7.8 0.4 10.4c4.9 1 9.9 1.4 14.9 1.1 5.1-0.3 9.8-1 14.2-2.2-0.1-1.8-0.2-4.2-0.3-7.1s-0.2-6.2-0.2-9.9v-23.9c0.6-0.9 1.4-1.7 2.3-2.3s1.9-0.9 2.8-0.9c1.5 0 2.7 0.6 3.6 1.8s1.4 3.1 1.4 5.9v7.9c0 3.2 0 6.5 0.1 9.9 0 3.5 0.1 6.9 0.2 10.4s0.1 6.6 0.2 9.3c4.9 0.9 10 1.3 15.4 1.1s10.4-1 15-2.2c-0.4-2.1-0.7-4.9-0.9-8.2-0.2-3.4-0.4-6.9-0.5-10.5-0.1-3.7-0.2-7.2-0.2-10.7s-0.1-6.5-0.1-9c-0.2-7.9-1.6-13.6-4.4-17.3" clip-path="url(#XMLID_59_)"/><path id="XMLID_8_" class="st1" d="m807.3 101.8c9.8 0 17.7-7.9 17.7-17.7s-7.9-17.7-17.7-17.7-17.7 7.9-17.7 17.7c-0.1 9.8 7.9 17.7 17.7 17.7" clip-path="url(#XMLID_59_)"/><path id="XMLID_7_" d="m807.3 66.32c-6.6 0-12.3 3.6-15.4 8.9h30.7c-3-5.3-8.7-8.9-15.3-8.9" clip-path="url(#XMLID_59_)" fill="#fddd45"/><path id="XMLID_6_" d="m822.6 93.02c1.5-2.6 2.4-5.6 2.4-8.9h-35.5c0 3.2 0.9 6.3 2.4 8.9z" clip-path="url(#XMLID_59_)" fill="#720092"/><path id="XMLID_5_" class="st0" d="m807.3 101.8c6.6 0 12.3-3.6 15.4-8.9h-30.7c3 5.4 8.7 8.9 15.3 8.9" clip-path="url(#XMLID_59_)"/><path id="XMLID_4_" d="m807.3 101.2c9.4 0 17.1-7.7 17.1-17.1s-7.7-17.1-17.1-17.1-17.1 7.7-17.1 17.1 7.6 17.1 17.1 17.1z" clip-path="url(#XMLID_59_)" fill="none" stroke="#fff" stroke-width="1.005"/></g><style>.st0,.st1{clip-path:url(#XMLID_59_);fill:#2d2d2b}.st1{fill:#fff}</style></svg>
